<svg width="29" height="27" viewBox="0 0 29 27" fill="none" xmlns="http://www.w3.org/2000/svg">
<g clip-path="url(#clip0)">
<path fill-rule="evenodd" clip-rule="evenodd" d="M14.7624 26.4062C7.4418 26.4062 1.50751 20.4953 1.50751 13.2031C1.50751 5.91094 7.4418 0 14.7624 0C22.0831 0 28.0174 5.91094 28.0174 13.2031C28.0174 20.4953 22.0831 26.4062 14.7624 26.4062ZM8.48382 19.6291H11.4078V11.4645H8.48382V19.6291ZM9.96563 7.52991C8.96524 7.52991 8.31118 8.13928 8.31118 8.93959C8.31118 9.72366 8.94595 10.3503 9.92704 10.3503H9.94634C10.966 10.3503 11.5998 9.72366 11.5998 8.93959C11.5815 8.13928 10.966 7.52991 9.96563 7.52991ZM21.95 14.9481C21.95 12.4395 20.5068 11.2725 18.5842 11.2725C17.0313 11.2725 16.3377 12.0647 15.9497 12.6213V11.4645H13.0257C13.0643 12.2313 13.0257 19.6291 13.0257 19.6291H15.9497V15.07C15.9497 14.8262 15.968 14.5815 16.0452 14.4088C16.2564 13.9203 16.7378 13.4155 17.5452 13.4155C18.6035 13.4155 19.026 14.164 19.026 15.2619V19.6291H21.95V14.9481ZM15.9294 12.6483C15.9355 12.6392 15.9436 12.6301 15.9497 12.6209V12.6483H15.9294Z" fill="#CBCBCB"/>
</g>
<defs>
<clipPath id="clip0">
<rect width="28.4375" height="26.4062" fill="white" transform="translate(0.5)"/>
</clipPath>
</defs>
</svg>
